<svg width="70" height="54" viewBox="0 0 70 54" fill="none" xmlns="http://www.w3.org/2000/svg">
<g filter="url(#filter0_ddd)">
<path d="M3 8C3 5.79086 4.79086 4 7 4H63C65.2091 4 67 5.79086 67 8V52H3V8Z" fill="#5981AA"/>
</g>
<g clip-path="url(#clip0)">
<path d="M47.923 16.6154H22.0769C20.723 16.6154 19.6154 17.723 19.6154 19.0769V36.3077C19.6154 36.9846 19.923 37.6 20.3538 38.0923L31.6154 27.6923L20.3538 38.0923C20.7846 38.523 21.4 38.7692 22.0769 38.7692H47.923C48.6 38.7692 49.2154 38.523 49.6461 38.0923L38.3846 27.6923L49.5846 38.0923C50.0769 37.6615 50.323 37.0461 50.323 36.3077V19.0769C50.3846 17.723 49.2769 16.6154 47.923 16.6154Z" stroke="white" stroke-width="1.5" stroke-miterlimit="10" stroke-linecap="round" stroke-linejoin="round"/>
<path d="M36.6 29.3538L49.6461 17.2923C49.2154 16.8615 48.6 16.6154 47.9231 16.6154H22.0769C21.4 16.6154 20.7846 16.8615 20.3538 17.2923L33.3384 29.2923C34.3231 30.1538 35.6769 30.1538 36.6 29.3538Z" stroke="white" stroke-width="1.5" stroke-miterlimit="10" stroke-linecap="round" stroke-linejoin="round"/>
</g>
<defs>
<filter id="filter0_ddd" x="0" y="0" width="70" height="54" filterUnits="userSpaceOnUse" color-interpolation-filters="sRGB">
<feFlood flood-opacity="0" result="BackgroundImageFix"/>
<feColorMatrix in="SourceAlpha" type="matrix" values="0 0 0 0 0 0 0 0 0 0 0 0 0 0 0 0 0 0 127 0"/>
<feOffset dy="-1"/>
<feGaussianBlur stdDeviation="1.5"/>
<feColorMatrix type="matrix" values="0 0 0 0 0 0 0 0 0 0 0 0 0 0 0 0 0 0 0.2 0"/>
<feBlend mode="normal" in2="BackgroundImageFix" result="effect1_dropShadow"/>
<feColorMatrix in="SourceAlpha" type="matrix" values="0 0 0 0 0 0 0 0 0 0 0 0 0 0 0 0 0 0 127 0"/>
<feOffset/>
<feGaussianBlur stdDeviation="0.5"/>
<feColorMatrix type="matrix" values="0 0 0 0 0 0 0 0 0 0 0 0 0 0 0 0 0 0 0.25 0"/>
<feBlend mode="normal" in2="effect1_dropShadow" result="effect2_dropShadow"/>
<feColorMatrix in="SourceAlpha" type="matrix" values="0 0 0 0 0 0 0 0 0 0 0 0 0 0 0 0 0 0 127 0"/>
<feOffset dy="-1"/>
<feColorMatrix type="matrix" values="0 0 0 0 0 0 0 0 0 0 0 0 0 0 0 0 0 0 0.05 0"/>
<feBlend mode="normal" in2="effect2_dropShadow" result="effect3_dropShadow"/>
<feBlend mode="normal" in="SourceGraphic" in2="effect3_dropShadow" result="shape"/>
</filter>
<clipPath id="clip0">
<rect x="19" y="16" width="32" height="23.3846" fill="white"/>
</clipPath>
</defs>
</svg>